<mxfile host="app.diagrams.net" modified="2021-06-27T03:16:21.806Z" agent="5.0 (Macintosh; Intel Mac OS X 10_15_1) AppleWebKit/537.36 (KHTML, like Gecko) Chrome/91.0.4472.114 Safari/537.36" etag="gq-RHRkBGTZv1DLCidZ5" version="14.8.1" type="github">
  <diagram id="cqUyGxBEpbW9cIvkbMbE" name="Page-1">
    <mxGraphModel dx="946" dy="645" grid="1" gridSize="10" guides="1" tooltips="1" connect="1" arrows="1" fold="1" page="1" pageScale="1" pageWidth="827" pageHeight="1169" math="0" shadow="0">
      <root>
        <mxCell id="0" />
        <mxCell id="1" parent="0" />
        <mxCell id="Bxm1Xw2ljUKom5zJj_Zr-1" value="User" style="whiteSpace=wrap;html=1;align=center;" parent="1" vertex="1">
          <mxGeometry x="100" y="160" width="100" height="40" as="geometry" />
        </mxCell>
        <mxCell id="Bxm1Xw2ljUKom5zJj_Zr-2" value="Todo" style="whiteSpace=wrap;html=1;align=center;" parent="1" vertex="1">
          <mxGeometry x="480" y="160" width="100" height="40" as="geometry" />
        </mxCell>
        <mxCell id="Bxm1Xw2ljUKom5zJj_Zr-3" value="Category" style="whiteSpace=wrap;html=1;align=center;" parent="1" vertex="1">
          <mxGeometry x="480" y="380" width="100" height="40" as="geometry" />
        </mxCell>
        <mxCell id="Bxm1Xw2ljUKom5zJj_Zr-4" value="has" style="shape=rhombus;perimeter=rhombusPerimeter;whiteSpace=wrap;html=1;align=center;" parent="1" vertex="1">
          <mxGeometry x="280" y="150" width="120" height="60" as="geometry" />
        </mxCell>
        <mxCell id="Bxm1Xw2ljUKom5zJj_Zr-5" value="has" style="shape=rhombus;perimeter=rhombusPerimeter;whiteSpace=wrap;html=1;align=center;" parent="1" vertex="1">
          <mxGeometry x="470" y="260" width="120" height="60" as="geometry" />
        </mxCell>
        <mxCell id="Bxm1Xw2ljUKom5zJj_Zr-6" value="" style="line;strokeWidth=1;rotatable=0;dashed=0;labelPosition=right;align=left;verticalAlign=middle;spacingTop=0;spacingLeft=6;points=[];portConstraint=eastwest;" parent="1" vertex="1">
          <mxGeometry x="200" y="175" width="80" height="10" as="geometry" />
        </mxCell>
        <mxCell id="Bxm1Xw2ljUKom5zJj_Zr-7" value="" style="line;strokeWidth=1;rotatable=0;dashed=0;labelPosition=right;align=left;verticalAlign=middle;spacingTop=0;spacingLeft=6;points=[];portConstraint=eastwest;" parent="1" vertex="1">
          <mxGeometry x="400" y="175" width="80" height="10" as="geometry" />
        </mxCell>
        <mxCell id="Bxm1Xw2ljUKom5zJj_Zr-10" value="" style="endArrow=none;html=1;entryX=0.5;entryY=1;entryDx=0;entryDy=0;exitX=0.5;exitY=0;exitDx=0;exitDy=0;" parent="1" source="Bxm1Xw2ljUKom5zJj_Zr-5" target="Bxm1Xw2ljUKom5zJj_Zr-2" edge="1">
          <mxGeometry width="50" height="50" relative="1" as="geometry">
            <mxPoint x="510" y="250" as="sourcePoint" />
            <mxPoint x="560" y="200" as="targetPoint" />
          </mxGeometry>
        </mxCell>
        <mxCell id="Bxm1Xw2ljUKom5zJj_Zr-11" value="" style="endArrow=none;html=1;entryX=0.5;entryY=1;entryDx=0;entryDy=0;exitX=0.5;exitY=0;exitDx=0;exitDy=0;" parent="1" source="Bxm1Xw2ljUKom5zJj_Zr-3" target="Bxm1Xw2ljUKom5zJj_Zr-5" edge="1">
          <mxGeometry width="50" height="50" relative="1" as="geometry">
            <mxPoint x="520" y="370" as="sourcePoint" />
            <mxPoint x="570" y="320" as="targetPoint" />
          </mxGeometry>
        </mxCell>
        <mxCell id="Bxm1Xw2ljUKom5zJj_Zr-13" value="EmailAddres" style="ellipse;whiteSpace=wrap;html=1;align=center;" parent="1" vertex="1">
          <mxGeometry x="40" y="230" width="100" height="40" as="geometry" />
        </mxCell>
        <mxCell id="Bxm1Xw2ljUKom5zJj_Zr-14" value="" style="endArrow=none;html=1;entryX=0.5;entryY=1;entryDx=0;entryDy=0;exitX=0;exitY=0.5;exitDx=0;exitDy=0;" parent="1" source="Bxm1Xw2ljUKom5zJj_Zr-1" target="Bxm1Xw2ljUKom5zJj_Zr-26" edge="1">
          <mxGeometry width="50" height="50" relative="1" as="geometry">
            <mxPoint x="90" y="190" as="sourcePoint" />
            <mxPoint x="60" y="150" as="targetPoint" />
          </mxGeometry>
        </mxCell>
        <mxCell id="Bxm1Xw2ljUKom5zJj_Zr-16" value="" style="endArrow=none;html=1;entryX=0.5;entryY=1;entryDx=0;entryDy=0;exitX=0.5;exitY=0;exitDx=0;exitDy=0;" parent="1" source="Bxm1Xw2ljUKom5zJj_Zr-13" target="Bxm1Xw2ljUKom5zJj_Zr-1" edge="1">
          <mxGeometry width="50" height="50" relative="1" as="geometry">
            <mxPoint x="50" y="260" as="sourcePoint" />
            <mxPoint x="100" y="210" as="targetPoint" />
          </mxGeometry>
        </mxCell>
        <mxCell id="Bxm1Xw2ljUKom5zJj_Zr-17" value="Name" style="ellipse;whiteSpace=wrap;html=1;align=center;" parent="1" vertex="1">
          <mxGeometry x="120" y="100" width="100" height="40" as="geometry" />
        </mxCell>
        <mxCell id="Bxm1Xw2ljUKom5zJj_Zr-18" value="FirstName" style="ellipse;whiteSpace=wrap;html=1;align=center;" parent="1" vertex="1">
          <mxGeometry x="70" y="40" width="100" height="40" as="geometry" />
        </mxCell>
        <mxCell id="Bxm1Xw2ljUKom5zJj_Zr-19" value="LastName" style="ellipse;whiteSpace=wrap;html=1;align=center;" parent="1" vertex="1">
          <mxGeometry x="180" y="40" width="100" height="40" as="geometry" />
        </mxCell>
        <mxCell id="Bxm1Xw2ljUKom5zJj_Zr-20" value="" style="endArrow=none;html=1;exitX=0.5;exitY=0;exitDx=0;exitDy=0;entryX=0.5;entryY=1;entryDx=0;entryDy=0;" parent="1" source="Bxm1Xw2ljUKom5zJj_Zr-1" target="Bxm1Xw2ljUKom5zJj_Zr-17" edge="1">
          <mxGeometry width="50" height="50" relative="1" as="geometry">
            <mxPoint x="140" y="180" as="sourcePoint" />
            <mxPoint x="170" y="150" as="targetPoint" />
          </mxGeometry>
        </mxCell>
        <mxCell id="Bxm1Xw2ljUKom5zJj_Zr-21" value="" style="endArrow=none;html=1;exitX=0.5;exitY=0;exitDx=0;exitDy=0;entryX=0.5;entryY=1;entryDx=0;entryDy=0;" parent="1" source="Bxm1Xw2ljUKom5zJj_Zr-17" target="Bxm1Xw2ljUKom5zJj_Zr-18" edge="1">
          <mxGeometry width="50" height="50" relative="1" as="geometry">
            <mxPoint x="80" y="120" as="sourcePoint" />
            <mxPoint x="130" y="70" as="targetPoint" />
          </mxGeometry>
        </mxCell>
        <mxCell id="Bxm1Xw2ljUKom5zJj_Zr-22" value="" style="endArrow=none;html=1;entryX=0.5;entryY=1;entryDx=0;entryDy=0;" parent="1" target="Bxm1Xw2ljUKom5zJj_Zr-19" edge="1">
          <mxGeometry width="50" height="50" relative="1" as="geometry">
            <mxPoint x="170" y="100" as="sourcePoint" />
            <mxPoint x="220" y="100" as="targetPoint" />
          </mxGeometry>
        </mxCell>
        <mxCell id="Bxm1Xw2ljUKom5zJj_Zr-26" value="UserID" style="ellipse;whiteSpace=wrap;html=1;align=center;fontStyle=4;" parent="1" vertex="1">
          <mxGeometry x="10" y="100" width="100" height="40" as="geometry" />
        </mxCell>
        <mxCell id="Bxm1Xw2ljUKom5zJj_Zr-27" value="CategoryID" style="ellipse;whiteSpace=wrap;html=1;align=center;fontStyle=4;" parent="1" vertex="1">
          <mxGeometry x="414" y="460" width="100" height="40" as="geometry" />
        </mxCell>
        <mxCell id="Bxm1Xw2ljUKom5zJj_Zr-28" value="Name" style="ellipse;whiteSpace=wrap;html=1;align=center;" parent="1" vertex="1">
          <mxGeometry x="540" y="460" width="100" height="40" as="geometry" />
        </mxCell>
        <mxCell id="Bxm1Xw2ljUKom5zJj_Zr-29" value="" style="endArrow=none;html=1;entryX=0.5;entryY=1;entryDx=0;entryDy=0;exitX=0.5;exitY=0;exitDx=0;exitDy=0;" parent="1" source="Bxm1Xw2ljUKom5zJj_Zr-27" target="Bxm1Xw2ljUKom5zJj_Zr-3" edge="1">
          <mxGeometry width="50" height="50" relative="1" as="geometry">
            <mxPoint x="420" y="480" as="sourcePoint" />
            <mxPoint x="470" y="430" as="targetPoint" />
          </mxGeometry>
        </mxCell>
        <mxCell id="Bxm1Xw2ljUKom5zJj_Zr-30" value="" style="endArrow=none;html=1;entryX=0.5;entryY=1;entryDx=0;entryDy=0;exitX=0.5;exitY=0;exitDx=0;exitDy=0;" parent="1" source="Bxm1Xw2ljUKom5zJj_Zr-28" target="Bxm1Xw2ljUKom5zJj_Zr-3" edge="1">
          <mxGeometry width="50" height="50" relative="1" as="geometry">
            <mxPoint x="660" y="480" as="sourcePoint" />
            <mxPoint x="710" y="430" as="targetPoint" />
          </mxGeometry>
        </mxCell>
        <mxCell id="Bxm1Xw2ljUKom5zJj_Zr-31" value="TodoID" style="ellipse;whiteSpace=wrap;html=1;align=center;fontStyle=4;" parent="1" vertex="1">
          <mxGeometry x="390" y="100" width="100" height="40" as="geometry" />
        </mxCell>
        <mxCell id="Bxm1Xw2ljUKom5zJj_Zr-32" value="" style="endArrow=none;html=1;entryX=0.5;entryY=1;entryDx=0;entryDy=0;exitX=0.5;exitY=0;exitDx=0;exitDy=0;" parent="1" source="Bxm1Xw2ljUKom5zJj_Zr-2" target="Bxm1Xw2ljUKom5zJj_Zr-31" edge="1">
          <mxGeometry width="50" height="50" relative="1" as="geometry">
            <mxPoint x="430" y="260" as="sourcePoint" />
            <mxPoint x="480" y="210" as="targetPoint" />
          </mxGeometry>
        </mxCell>
        <mxCell id="Bxm1Xw2ljUKom5zJj_Zr-33" value="Description" style="ellipse;whiteSpace=wrap;html=1;align=center;" parent="1" vertex="1">
          <mxGeometry x="470" y="60" width="100" height="40" as="geometry" />
        </mxCell>
        <mxCell id="Bxm1Xw2ljUKom5zJj_Zr-34" value="" style="endArrow=none;html=1;entryX=0.5;entryY=1;entryDx=0;entryDy=0;" parent="1" target="Bxm1Xw2ljUKom5zJj_Zr-33" edge="1">
          <mxGeometry width="50" height="50" relative="1" as="geometry">
            <mxPoint x="530" y="160" as="sourcePoint" />
            <mxPoint x="630" y="110" as="targetPoint" />
          </mxGeometry>
        </mxCell>
        <mxCell id="Bxm1Xw2ljUKom5zJj_Zr-36" value="ForDate" style="ellipse;whiteSpace=wrap;html=1;align=center;" parent="1" vertex="1">
          <mxGeometry x="570" y="90" width="100" height="40" as="geometry" />
        </mxCell>
        <mxCell id="Bxm1Xw2ljUKom5zJj_Zr-37" value="" style="endArrow=none;html=1;entryX=0.5;entryY=1;entryDx=0;entryDy=0;exitX=0.5;exitY=0;exitDx=0;exitDy=0;" parent="1" source="Bxm1Xw2ljUKom5zJj_Zr-2" target="Bxm1Xw2ljUKom5zJj_Zr-36" edge="1">
          <mxGeometry width="50" height="50" relative="1" as="geometry">
            <mxPoint x="590" y="220" as="sourcePoint" />
            <mxPoint x="640" y="170" as="targetPoint" />
          </mxGeometry>
        </mxCell>
        <mxCell id="Bxm1Xw2ljUKom5zJj_Zr-38" value="CompletedOn" style="ellipse;whiteSpace=wrap;html=1;align=center;" parent="1" vertex="1">
          <mxGeometry x="630" y="135" width="100" height="40" as="geometry" />
        </mxCell>
        <mxCell id="Bxm1Xw2ljUKom5zJj_Zr-39" value="" style="endArrow=none;html=1;entryX=0;entryY=0.5;entryDx=0;entryDy=0;exitX=1;exitY=0.5;exitDx=0;exitDy=0;" parent="1" source="Bxm1Xw2ljUKom5zJj_Zr-2" target="Bxm1Xw2ljUKom5zJj_Zr-38" edge="1">
          <mxGeometry width="50" height="50" relative="1" as="geometry">
            <mxPoint x="590" y="240" as="sourcePoint" />
            <mxPoint x="640" y="190" as="targetPoint" />
          </mxGeometry>
        </mxCell>
        <mxCell id="Bxm1Xw2ljUKom5zJj_Zr-40" value="DaysForCompletion" style="ellipse;whiteSpace=wrap;html=1;align=center;dashed=1;" parent="1" vertex="1">
          <mxGeometry x="600" y="185" width="130" height="40" as="geometry" />
        </mxCell>
        <mxCell id="Bxm1Xw2ljUKom5zJj_Zr-41" value="" style="endArrow=none;html=1;entryX=1;entryY=0.5;entryDx=0;entryDy=0;exitX=0;exitY=0;exitDx=0;exitDy=0;" parent="1" source="Bxm1Xw2ljUKom5zJj_Zr-40" target="Bxm1Xw2ljUKom5zJj_Zr-2" edge="1">
          <mxGeometry width="50" height="50" relative="1" as="geometry">
            <mxPoint x="670" y="340" as="sourcePoint" />
            <mxPoint x="720" y="290" as="targetPoint" />
          </mxGeometry>
        </mxCell>
        <mxCell id="Bxm1Xw2ljUKom5zJj_Zr-42" value="M" style="text;html=1;align=center;verticalAlign=middle;resizable=0;points=[];autosize=1;strokeColor=none;" parent="1" vertex="1">
          <mxGeometry x="225" y="160" width="30" height="20" as="geometry" />
        </mxCell>
        <mxCell id="Bxm1Xw2ljUKom5zJj_Zr-43" value="N" style="text;html=1;align=center;verticalAlign=middle;resizable=0;points=[];autosize=1;strokeColor=none;" parent="1" vertex="1">
          <mxGeometry x="420" y="160" width="20" height="20" as="geometry" />
        </mxCell>
        <mxCell id="Bxm1Xw2ljUKom5zJj_Zr-44" value="N" style="text;html=1;align=center;verticalAlign=middle;resizable=0;points=[];autosize=1;strokeColor=none;" parent="1" vertex="1">
          <mxGeometry x="530" y="220" width="20" height="20" as="geometry" />
        </mxCell>
        <mxCell id="Bxm1Xw2ljUKom5zJj_Zr-45" value="1" style="text;html=1;align=center;verticalAlign=middle;resizable=0;points=[];autosize=1;strokeColor=none;" parent="1" vertex="1">
          <mxGeometry x="530" y="340" width="20" height="20" as="geometry" />
        </mxCell>
        <mxCell id="XaByw5-rMX6WUTFhHfbv-1" value="DOB" style="ellipse;whiteSpace=wrap;html=1;align=center;" vertex="1" parent="1">
          <mxGeometry x="150" y="230" width="100" height="40" as="geometry" />
        </mxCell>
        <mxCell id="XaByw5-rMX6WUTFhHfbv-2" value="" style="endArrow=none;html=1;exitX=0.5;exitY=1;exitDx=0;exitDy=0;entryX=0.5;entryY=0;entryDx=0;entryDy=0;" edge="1" parent="1" source="Bxm1Xw2ljUKom5zJj_Zr-1" target="XaByw5-rMX6WUTFhHfbv-1">
          <mxGeometry width="50" height="50" relative="1" as="geometry">
            <mxPoint x="190" y="400" as="sourcePoint" />
            <mxPoint x="240" y="350" as="targetPoint" />
          </mxGeometry>
        </mxCell>
      </root>
    </mxGraphModel>
  </diagram>
</mxfile>
